<?xml version="1.0" encoding="UTF-8" standalone="no"?>
<svg
   width="512"
   height="512"
   viewBox="0 0 512 512"
   version="1.1"
   id="svg6"
   sodipodi:docname="camera.svg"
   inkscape:version="1.1.2 (0a00cf5339, 2022-02-04)"
   xmlns:inkscape="http://www.inkscape.org/namespaces/inkscape"
   xmlns:sodipodi="http://sodipodi.sourceforge.net/DTD/sodipodi-0.dtd"
   xmlns="http://www.w3.org/2000/svg"
   xmlns:svg="http://www.w3.org/2000/svg">
  <defs
     id="defs10" />
  <sodipodi:namedview
     id="namedview8"
     pagecolor="#ffffff"
     bordercolor="#666666"
     borderopacity="1.0"
     inkscape:pageshadow="2"
     inkscape:pageopacity="0.0"
     inkscape:pagecheckerboard="0"
     showgrid="false"
     inkscape:zoom="1.4199219"
     inkscape:cx="255.64786"
     inkscape:cy="256"
     inkscape:window-width="1920"
     inkscape:window-height="977"
     inkscape:window-x="0"
     inkscape:window-y="31"
     inkscape:window-maximized="1"
     inkscape:current-layer="svg6" />
  <circle
     cx="256"
     cy="274.39957"
     r="72.7967"
     id="circle2"
     style="fill:#ffffff;fill-opacity:1;stroke-width:1.13744" />
  <path
     d="m 456.19091,128.80616 h -67.10946 c -3.41234,0 -7.64365,-2.20665 -10.94225,-5.68725 L 348.63379,76.551782 a 17.653199,17.653199 0 0 0 -1.5583,-2.10428 C 336.88395,62.561166 323.10945,56.009464 308.32262,56.009464 H 203.67737 c -14.78683,0 -28.56133,6.551702 -38.75287,18.438038 a 17.653199,17.653199 0 0 0 -1.5583,2.10428 l -29.50541,46.635378 c -2.52514,2.75263 -6.07398,5.68725 -9.80481,5.68725 v -9.09959 A 18.199174,18.199174 0 0 0 105.85681,101.57565 H 78.558055 a 18.199174,18.199174 0 0 0 -18.199174,18.19917 v 9.09959 H 55.809087 A 54.654394,54.654394 0 0 0 1.2115652,183.47193 V 401.79377 A 54.654394,54.654394 0 0 0 55.809087,456.39129 H 456.19091 a 54.654394,54.654394 0 0 0 54.59752,-54.59752 V 183.40369 A 54.654394,54.654394 0 0 0 456.19091,128.80616 Z M 256,383.59459 A 109.19504,109.19504 0 1 1 365.19504,274.39955 109.32016,109.32016 0 0 1 256,383.59459 Z"
     id="path4"
     style="fill:#ffffff;fill-opacity:1;stroke-width:1.13744" />
</svg>
