<?xml version="1.0" encoding="UTF-8" standalone="no"?>
<!-- Generator: Adobe Illustrator 19.0.0, SVG Export Plug-In . SVG Version: 6.00 Build 0)  -->

<svg
   version="1.1"
   id="Capa_1"
   x="0px"
   y="0px"
   viewBox="0 0 57 57"
   style="enable-background:new 0 0 57 57;"
   xml:space="preserve"
   sodipodi:docname="camera.svg"
   inkscape:version="1.1.2 (0a00cf5339, 2022-02-04)"
   xmlns:inkscape="http://www.inkscape.org/namespaces/inkscape"
   xmlns:sodipodi="http://sodipodi.sourceforge.net/DTD/sodipodi-0.dtd"
   xmlns="http://www.w3.org/2000/svg"
   xmlns:svg="http://www.w3.org/2000/svg"><defs
   id="defs37" /><sodipodi:namedview
   id="namedview35"
   pagecolor="#ffffff"
   bordercolor="#666666"
   borderopacity="1.0"
   inkscape:pageshadow="2"
   inkscape:pageopacity="0.0"
   inkscape:pagecheckerboard="0"
   showgrid="false"
   inkscape:zoom="6.377193"
   inkscape:cx="12.779917"
   inkscape:cy="22.345254"
   inkscape:window-width="1920"
   inkscape:window-height="985"
   inkscape:window-x="1052"
   inkscape:window-y="1109"
   inkscape:window-maximized="1"
   inkscape:current-layer="Capa_1" />
<path
   id="path2"
   d="M 0.08398437,5.9104224 C 0.03006334,6.0333072 0,6.1698291 0,6.3127662 0,6.4557032 0.03006334,6.590272 0.08398437,6.7131568 Z M 53.025391,12.875263 c -0.466161,0.02625 -0.931969,0.138922 -1.371094,0.341797 L 44,16.750263 v -0.13086 c 0,-1.823 -1.482641,-3.30664 -3.306641,-3.30664 H 36 v -0.002 h -2 v 0.002 H 3.3066406 C 1.4826406,13.313763 0,14.796403 0,16.619403 v 25.386719 c 0,1.823 1.4826406,3.306641 3.3066406,3.306641 H 40.693359 c 1.824,0 3.306641,-1.482641 3.306641,-3.306641 v -0.130859 l 7.654297,3.533203 c 0.506,0.233 1.045031,0.349609 1.582031,0.349609 0.707,0 1.409344,-0.199703 2.027344,-0.595703 C 56.350672,44.467372 57,43.279544 57,41.988544 V 16.636981 c 0,-1.291 -0.648328,-2.475875 -1.736328,-3.171874 -0.679375,-0.434375 -1.461348,-0.633594 -2.238281,-0.589844 z m 0.328125,1.99414 c 0.288625,0.01987 0.573531,0.113797 0.832031,0.279297 C 54.702547,15.4797 55,16.022981 55,16.636981 v 25.351563 c 0,0.614 -0.297453,1.157281 -0.814453,1.488281 -0.517,0.331 -1.132406,0.376235 -1.691406,0.115235 L 44,39.674091 V 18.953388 l 8.492188,-3.919922 c 0.278999,-0.13 0.572703,-0.183938 0.861328,-0.164063 z M 3.3066406,15.312763 H 40.693359 c 0.721,0 1.306641,0.58564 1.306641,1.30664 v 1.054688 23.279297 1.052734 c 0,0.721 -0.585641,1.306641 -1.306641,1.306641 H 3.3066406 C 2.5856406,43.312763 2,42.727122 2,42.006122 V 16.619403 c 0,-0.721 0.5856406,-1.30664 1.3066406,-1.30664 z"
   style="fill:#ffffff;fill-opacity:1" />
<g
   id="g4"
   style="fill:#ffffff;fill-opacity:1">
</g>
<g
   id="g6"
   style="fill:#ffffff;fill-opacity:1">
</g>
<g
   id="g8"
   style="fill:#ffffff;fill-opacity:1">
</g>
<g
   id="g10"
   style="fill:#ffffff;fill-opacity:1">
</g>
<g
   id="g12"
   style="fill:#ffffff;fill-opacity:1">
</g>
<g
   id="g14"
   style="fill:#ffffff;fill-opacity:1">
</g>
<g
   id="g16"
   style="fill:#ffffff;fill-opacity:1">
</g>
<g
   id="g18"
   style="fill:#ffffff;fill-opacity:1">
</g>
<g
   id="g20"
   style="fill:#ffffff;fill-opacity:1">
</g>
<g
   id="g22"
   style="fill:#ffffff;fill-opacity:1">
</g>
<g
   id="g24"
   style="fill:#ffffff;fill-opacity:1">
</g>
<g
   id="g26"
   style="fill:#ffffff;fill-opacity:1">
</g>
<g
   id="g28"
   style="fill:#ffffff;fill-opacity:1">
</g>
<g
   id="g30"
   style="fill:#ffffff;fill-opacity:1">
</g>
<g
   id="g32"
   style="fill:#ffffff;fill-opacity:1">
</g>
</svg>
