<?xml version="1.0" encoding="UTF-8" standalone="no"?>
<svg
   width="512"
   height="512"
   viewBox="0 0 512 512"
   version="1.1"
   id="svg4"
   sodipodi:docname="picture.svg"
   inkscape:version="1.1.2 (0a00cf5339, 2022-02-04)"
   xmlns:inkscape="http://www.inkscape.org/namespaces/inkscape"
   xmlns:sodipodi="http://sodipodi.sourceforge.net/DTD/sodipodi-0.dtd"
   xmlns="http://www.w3.org/2000/svg"
   xmlns:svg="http://www.w3.org/2000/svg">
  <defs
     id="defs8" />
  <sodipodi:namedview
     id="namedview6"
     pagecolor="#ffffff"
     bordercolor="#666666"
     borderopacity="1.0"
     inkscape:pageshadow="2"
     inkscape:pageopacity="0.0"
     inkscape:pagecheckerboard="0"
     showgrid="false"
     inkscape:zoom="1.0040364"
     inkscape:cx="179.27637"
     inkscape:cy="337.13917"
     inkscape:window-width="1920"
     inkscape:window-height="977"
     inkscape:window-x="598"
     inkscape:window-y="1111"
     inkscape:window-maximized="1"
     inkscape:current-layer="g6431" />
  <g
     id="g2673"
     transform="matrix(1.1699009,0,0,1.1699009,62.620019,104.4211)">
    <g
       id="g5916"
       transform="matrix(1.1219948,0,0,1.1219948,-25.429148,-8.7539936)">
      <g
         id="g6431"
         transform="translate(-0.33842029,-9.216955)">
        <path
           id="path1975"
           style="fill:#ffffff;fill-opacity:1;stroke-width:0.65104"
           d="m 17.780544,-36.494452 c -23.001456,0.02511 -41.642853,18.664559 -41.667968,41.6660107 V 171.83953 c 0.02511,23.00146 18.666512,41.64091 41.667968,41.66602 H 125.18246 l 25.24568,-111.18953 c 14.96549,-0.0163 1.39159,-5.837893 5.85564,-6.971202 3.15775,-0.801674 9.05373,6.544862 9.0625,-1.491111 L 267.78055,54.062845 V 5.1715587 C 267.75544,-17.829893 249.11404,-36.469337 226.11258,-36.494452 Z M 174.03055,5.1715587 c 12.63943,10e-6 24.03252,7.6139183 28.86914,19.2910183 4.83661,11.67708 2.16396,25.1173 -6.77344,34.05469 -8.93739,8.937381 -22.37762,11.612011 -34.05469,6.775391 -11.6771,-4.836631 -19.29101,-16.231671 -19.29101,-28.871101 0.0179,-17.25147 13.99853,-31.2320683 31.25,-31.2499983 z M 80.354771,65.058278 c 7.70004,0.22234 15.31993,3.27461 21.175779,9.10547 L 143.8157,116.35711 67.499302,192.67156 H 17.780544 c -11.50593,0 -20.833982,-9.3261 -20.833984,-20.83203 V 127.80828 L 58.690702,72.925468 c 6.18255,-5.48324 13.96403,-8.08953 21.664069,-7.86719 z M 226.0325,192.31414 c 1.70513,0.22752 2.33574,0.35742 0.0801,0.35742 z"
           sodipodi:nodetypes="ccccccsccccccsssccscccssccsccc" />
        <path
           d="m 362.39799,106.68881 c 0,-29.296072 -21.54889,-52.863142 -48.17577,-52.863142 -36.06673,-1.68616 -72.84959,-2.33718 -110.4397,-2.33718 h -11.71844 c -37.49897,0 -74.34692,0.65102 -110.413647,2.34369 -26.56177,0 -48.11068,23.69727 -48.11068,52.993342 -1.62755,23.16993 -2.31764,46.3464 -2.27858,69.52286 q -0.0977,34.76467 2.21348,69.59444 c 0,29.29608 21.5489,53.05845 48.11068,53.05845 37.889587,1.75778 76.755717,2.539 116.272877,2.47389 q 59.37338,0.19531 116.27287,-2.47389 c 26.62687,0 48.17576,-23.76237 48.17576,-53.05845 1.56246,-23.24154 2.27859,-46.418 2.21349,-69.65954 q 0.22134,-34.76469 -2.12234,-69.59447 z m -196.37487,133.525 V 112.28762 l 94.39848,63.93055 z"
           id="path2-3"
           style="fill:#ffffff;fill-opacity:1;stroke-width:0.651024" />
      </g>
    </g>
  </g>
</svg>
