<?xml version="1.0" encoding="UTF-8" standalone="no"?>
<!-- Generator: Adobe Illustrator 19.0.0, SVG Export Plug-In . SVG Version: 6.00 Build 0)  -->

<svg
   version="1.1"
   id="Capa_1"
   x="0px"
   y="0px"
   viewBox="0 0 57.945 57.945"
   style="enable-background:new 0 0 57.945 57.945;"
   xml:space="preserve"
   sodipodi:docname="motion.svg"
   inkscape:version="1.1.2 (0a00cf5339, 2022-02-04)"
   xmlns:inkscape="http://www.inkscape.org/namespaces/inkscape"
   xmlns:sodipodi="http://sodipodi.sourceforge.net/DTD/sodipodi-0.dtd"
   xmlns="http://www.w3.org/2000/svg"
   xmlns:svg="http://www.w3.org/2000/svg"><defs
   id="defs41" /><sodipodi:namedview
   id="namedview39"
   pagecolor="#ffffff"
   bordercolor="#666666"
   borderopacity="1.0"
   inkscape:pageshadow="2"
   inkscape:pageopacity="0.0"
   inkscape:pagecheckerboard="0"
   showgrid="false"
   inkscape:zoom="12.54638"
   inkscape:cx="28.9725"
   inkscape:cy="28.9725"
   inkscape:window-width="1920"
   inkscape:window-height="979"
   inkscape:window-x="598"
   inkscape:window-y="1109"
   inkscape:window-maximized="1"
   inkscape:current-layer="Capa_1" />
<g
   id="g6"
   style="fill:#ffffff;fill-opacity:0.99740362;stroke:#ffffff;stroke-opacity:1"
   transform="matrix(0.82782816,0,0,0.77787577,4.9882485,6.4354941)">
	<path
   d="m 29,21.972 c -3.86,0 -7,3.14 -7,7 0,0.552 0.448,1 1,1 0.552,0 1,-0.448 1,-1 0,-2.757 2.243,-5 5,-5 0.552,0 1,-0.448 1,-1 0,-0.552 -0.448,-1 -1,-1 z"
   id="path2"
   style="fill:#ffffff;fill-opacity:0.99740362;stroke:#ffffff;stroke-opacity:1" />
	<path
   d="m 57.655,27.873 c -7.613,-7.674 -17.758,-11.9 -28.568,-11.9 -0.02,0 -0.039,10e-4 -0.059,10e-4 -0.01,0 -0.019,-10e-4 -0.028,-10e-4 -0.027,0 -0.054,0.004 -0.081,0.004 C 18.173,16.02 8.093,20.239 0.52,27.873 l -0.23,0.232 c -0.389,0.392 -0.386,1.025 0.006,1.414 0.195,0.193 0.45,0.29 0.704,0.29 0.257,0 0.515,-0.099 0.71,-0.296 L 1.94,29.281 C 7.194,23.984 13.722,20.426 20.835,18.87 17.89,21.255 16,24.896 16,28.972 c 0,7.168 5.832,13 13,13 7.168,0 13,-5.832 13,-13 0,-4.11 -1.923,-7.774 -4.91,-10.158 7.211,1.527 13.829,5.108 19.145,10.467 0.389,0.393 1.023,0.395 1.414,0.006 0.392,-0.389 0.395,-1.022 0.006,-1.414 z M 40,28.972 c 0,6.065 -4.935,11 -11,11 -6.065,0 -11,-4.935 -11,-11 0,-6.038 4.891,-10.952 10.919,-10.996 0.037,0 0.073,-0.003 0.109,-0.003 C 35.081,17.989 40,22.917 40,28.972 Z"
   id="path4"
   style="fill:#ffffff;fill-opacity:0.99740362;stroke:#ffffff;stroke-opacity:1" />
</g>
<g
   id="g8"
   style="fill:#ffffff;fill-opacity:0.94126296;stroke:#ffffff;stroke-opacity:1"
   transform="matrix(0.84468366,0,0,0.80768491,0.13741646,2.6352237)">
</g>
<g
   id="g10"
   style="fill:#ffffff;fill-opacity:0.94126296;stroke:#ffffff;stroke-opacity:1"
   transform="matrix(0.84468366,0,0,0.80768491,0.13741646,2.6352237)">
</g>
<g
   id="g12"
   style="fill:#ffffff;fill-opacity:0.94126296;stroke:#ffffff;stroke-opacity:1"
   transform="matrix(0.84468366,0,0,0.80768491,0.13741646,2.6352237)">
</g>
<g
   id="g14"
   style="fill:#ffffff;fill-opacity:0.94126296;stroke:#ffffff;stroke-opacity:1"
   transform="matrix(0.84468366,0,0,0.80768491,0.13741646,2.6352237)">
</g>
<g
   id="g16"
   style="fill:#ffffff;fill-opacity:0.94126296;stroke:#ffffff;stroke-opacity:1"
   transform="matrix(0.84468366,0,0,0.80768491,0.13741646,2.6352237)">
</g>
<g
   id="g18"
   style="fill:#ffffff;fill-opacity:0.94126296;stroke:#ffffff;stroke-opacity:1"
   transform="matrix(0.84468366,0,0,0.80768491,0.13741646,2.6352237)">
</g>
<g
   id="g20"
   style="fill:#ffffff;fill-opacity:0.94126296;stroke:#ffffff;stroke-opacity:1"
   transform="matrix(0.84468366,0,0,0.80768491,0.13741646,2.6352237)">
</g>
<g
   id="g22"
   style="fill:#ffffff;fill-opacity:0.94126296;stroke:#ffffff;stroke-opacity:1"
   transform="matrix(0.84468366,0,0,0.80768491,0.13741646,2.6352237)">
</g>
<g
   id="g24"
   style="fill:#ffffff;fill-opacity:0.94126296;stroke:#ffffff;stroke-opacity:1"
   transform="matrix(0.84468366,0,0,0.80768491,0.13741646,2.6352237)">
</g>
<g
   id="g26"
   style="fill:#ffffff;fill-opacity:0.94126296;stroke:#ffffff;stroke-opacity:1"
   transform="matrix(0.84468366,0,0,0.80768491,0.13741646,2.6352237)">
</g>
<g
   id="g28"
   style="fill:#ffffff;fill-opacity:0.94126296;stroke:#ffffff;stroke-opacity:1"
   transform="matrix(0.84468366,0,0,0.80768491,0.13741646,2.6352237)">
</g>
<g
   id="g30"
   style="fill:#ffffff;fill-opacity:0.94126296;stroke:#ffffff;stroke-opacity:1"
   transform="matrix(0.84468366,0,0,0.80768491,0.13741646,2.6352237)">
</g>
<g
   id="g32"
   style="fill:#ffffff;fill-opacity:0.94126296;stroke:#ffffff;stroke-opacity:1"
   transform="matrix(0.84468366,0,0,0.80768491,0.13741646,2.6352237)">
</g>
<g
   id="g34"
   style="fill:#ffffff;fill-opacity:0.94126296;stroke:#ffffff;stroke-opacity:1"
   transform="matrix(0.84468366,0,0,0.80768491,0.13741646,2.6352237)">
</g>
<g
   id="g36"
   style="fill:#ffffff;fill-opacity:0.94126296;stroke:#ffffff;stroke-opacity:1"
   transform="matrix(0.84468366,0,0,0.80768491,0.13741646,2.6352237)">
</g>
<circle
   style="fill:#ffffff;fill-opacity:0;stroke:#ffffff;stroke-width:2.11826;stroke-linecap:round;stroke-miterlimit:4;stroke-dasharray:none;stroke-opacity:1;paint-order:stroke fill markers"
   id="path1272"
   cx="28.9725"
   cy="28.9725"
   r="27.694109" /></svg>
