<?xml version="1.0" encoding="UTF-8" standalone="no"?>
<svg
   width="512"
   height="512"
   viewBox="0 0 512 512"
   version="1.1"
   id="svg4"
   sodipodi:docname="picture.svg"
   inkscape:version="1.1.2 (0a00cf5339, 2022-02-04)"
   xmlns:inkscape="http://www.inkscape.org/namespaces/inkscape"
   xmlns:sodipodi="http://sodipodi.sourceforge.net/DTD/sodipodi-0.dtd"
   xmlns="http://www.w3.org/2000/svg"
   xmlns:svg="http://www.w3.org/2000/svg">
  <defs
     id="defs8" />
  <sodipodi:namedview
     id="namedview6"
     pagecolor="#ffffff"
     bordercolor="#666666"
     borderopacity="1.0"
     inkscape:pageshadow="2"
     inkscape:pageopacity="0.0"
     inkscape:pagecheckerboard="0"
     showgrid="false"
     inkscape:zoom="1.4199219"
     inkscape:cx="255.64786"
     inkscape:cy="256"
     inkscape:window-width="1920"
     inkscape:window-height="977"
     inkscape:window-x="0"
     inkscape:window-y="31"
     inkscape:window-maximized="1"
     inkscape:current-layer="svg4" />
  <path
     d="M 437.51556,38.181329 H 74.484439 A 72.685638,72.685638 0 0 0 1.8782156,110.78755 v 290.4249 A 72.685638,72.685638 0 0 0 74.484439,473.81867 H 437.51556 a 72.685638,72.685638 0 0 0 72.60622,-72.60622 V 110.78755 A 72.685638,72.685638 0 0 0 437.51556,38.181329 Z m -90.75778,72.606221 a 54.454668,54.454668 0 1 1 -54.45467,54.45467 54.511392,54.511392 0 0 1 54.45467,-54.45467 z M 74.484439,437.51556 A 36.303112,36.303112 0 0 1 38.181327,401.21245 V 324.48809 L 145.77467,228.85208 a 54.522736,54.522736 0 0 1 74.64828,2.1555 l 73.68397,73.52514 -132.98284,132.98284 z M 473.81867,401.21245 a 36.303112,36.303112 0 0 1 -36.30311,36.30311 H 212.4703 L 350.21792,299.76794 a 54.137016,54.137016 0 0 1 69.92886,-0.18151 l 53.67189,44.72089 z"
     id="path2"
     style="fill:#ffffff;fill-opacity:1;stroke-width:1.13447" />
</svg>
