<?xml version="1.0" encoding="UTF-8" standalone="no"?>
<svg
   width="512"
   height="512"
   viewBox="0 0 512 512"
   version="1.1"
   id="svg6"
   sodipodi:docname="power.svg"
   inkscape:version="1.1.2 (0a00cf5339, 2022-02-04)"
   xmlns:inkscape="http://www.inkscape.org/namespaces/inkscape"
   xmlns:sodipodi="http://sodipodi.sourceforge.net/DTD/sodipodi-0.dtd"
   xmlns="http://www.w3.org/2000/svg"
   xmlns:svg="http://www.w3.org/2000/svg">
  <defs
     id="defs10" />
  <sodipodi:namedview
     id="namedview8"
     pagecolor="#ffffff"
     bordercolor="#666666"
     borderopacity="1.0"
     inkscape:pageshadow="2"
     inkscape:pageopacity="0.0"
     inkscape:pagecheckerboard="0"
     showgrid="false"
     inkscape:zoom="1.4199219"
     inkscape:cx="256"
     inkscape:cy="256"
     inkscape:window-width="1920"
     inkscape:window-height="977"
     inkscape:window-x="598"
     inkscape:window-y="1111"
     inkscape:window-maximized="1"
     inkscape:current-layer="svg6" />
  <path
     d="M256,464C141.31,464,48,370.53,48,255.65c0-62.45,27.25-121,74.76-160.55a22,22,0,1,1,28.17,33.8C113.48,160.1,92,206.3,92,255.65,92,346.27,165.57,420,256,420s164-73.73,164-164.35A164,164,0,0,0,360.17,129a22,22,0,1,1,28-33.92A207.88,207.88,0,0,1,464,255.65C464,370.53,370.69,464,256,464Z"
     id="path2"
     style="fill:#ffffff;fill-opacity:1" />
  <path
     d="M256,272a22,22,0,0,1-22-22V70a22,22,0,0,1,44,0V250A22,22,0,0,1,256,272Z"
     id="path4"
     style="fill:#ffffff;fill-opacity:1" />
</svg>
