<?xml version="1.0" encoding="UTF-8" standalone="no"?>
<!-- Generator: Adobe Illustrator 22.1.0, SVG Export Plug-In . SVG Version: 6.00 Build 0)  -->

<svg
   version="1.1"
   id="Layer_1"
   x="0px"
   y="0px"
   viewBox="0 0 24 24"
   style="enable-background:new 0 0 24 24;"
   xml:space="preserve"
   sodipodi:docname="screen-1.svg"
   inkscape:version="1.1.2 (0a00cf5339, 2022-02-04)"
   xmlns:inkscape="http://www.inkscape.org/namespaces/inkscape"
   xmlns:sodipodi="http://sodipodi.sourceforge.net/DTD/sodipodi-0.dtd"
   xmlns="http://www.w3.org/2000/svg"
   xmlns:svg="http://www.w3.org/2000/svg"><defs
   id="defs897" /><sodipodi:namedview
   id="namedview895"
   pagecolor="#ffffff"
   bordercolor="#666666"
   borderopacity="1.0"
   inkscape:pageshadow="2"
   inkscape:pageopacity="0.0"
   inkscape:pagecheckerboard="0"
   showgrid="false"
   inkscape:zoom="32.625"
   inkscape:cx="12"
   inkscape:cy="12"
   inkscape:window-width="1920"
   inkscape:window-height="979"
   inkscape:window-x="690"
   inkscape:window-y="1109"
   inkscape:window-maximized="1"
   inkscape:current-layer="Layer_1" />
<g
   id="g892"
   style="fill:#ffffff;fill-opacity:1">
	<title
   id="title888">screen-1</title>
	<path
   d="M6.489,21.5c-0.276,0-0.5-0.224-0.5-0.5s0.224-0.5,0.5-0.5H10v-2H1.5C0.673,18.5,0,17.827,0,17V4   c0-0.827,0.673-1.5,1.5-1.5h21C23.327,2.5,24,3.173,24,4v13c0,0.827-0.673,1.5-1.5,1.5H14v2h3.489c0.276,0,0.5,0.224,0.5,0.5   s-0.224,0.5-0.5,0.5H6.489z M13,20.5v-2h-2v2H13z M1.5,3.5C1.224,3.5,1,3.724,1,4v13c0,0.276,0.224,0.5,0.5,0.5h21   c0.276,0,0.5-0.224,0.5-0.5V4c0-0.276-0.224-0.5-0.5-0.5H1.5z"
   id="path890"
   style="fill:#ffffff;fill-opacity:1" />
</g>
</svg>
