<?xml version="1.0" encoding="UTF-8" standalone="no"?>
<!-- Generator: Adobe Illustrator 22.1.0, SVG Export Plug-In . SVG Version: 6.00 Build 0)  -->

<svg
   version="1.1"
   id="Layer_1"
   x="0px"
   y="0px"
   viewBox="0 0 24 24"
   style="enable-background:new 0 0 24 24;"
   xml:space="preserve"
   sodipodi:docname="graph-stats-circle.svg"
   inkscape:version="1.1.2 (0a00cf5339, 2022-02-04)"
   xmlns:inkscape="http://www.inkscape.org/namespaces/inkscape"
   xmlns:sodipodi="http://sodipodi.sourceforge.net/DTD/sodipodi-0.dtd"
   xmlns="http://www.w3.org/2000/svg"
   xmlns:svg="http://www.w3.org/2000/svg"><defs
   id="defs13" /><sodipodi:namedview
   id="namedview11"
   pagecolor="#ffffff"
   bordercolor="#666666"
   borderopacity="1.0"
   inkscape:pageshadow="2"
   inkscape:pageopacity="0.0"
   inkscape:pagecheckerboard="0"
   showgrid="false"
   inkscape:zoom="30.291667"
   inkscape:cx="12"
   inkscape:cy="12"
   inkscape:window-width="1920"
   inkscape:window-height="977"
   inkscape:window-x="598"
   inkscape:window-y="1111"
   inkscape:window-maximized="1"
   inkscape:current-layer="g8" />
<g
   id="g8">
	<title
   id="title2">graph-stats-circle</title>
	
	<path
   id="path1670"
   style="fill:#ffffff;fill-opacity:1;stroke:none;stroke-width:0.720533;stroke-linecap:round;stroke-miterlimit:4;stroke-dasharray:none;stroke-opacity:1;paint-order:stroke fill markers"
   d="M 12 0.083984375 A 11.91614 11.91614 0 0 0 0.083984375 12 A 11.91614 11.91614 0 0 0 12 23.916016 A 11.91614 11.91614 0 0 0 23.916016 12 A 11.91614 11.91614 0 0 0 12 0.083984375 z M 9.2929688 4.1894531 C 9.3728165 4.1894531 9.4520174 4.198533 9.53125 4.2148438 L 9.5332031 4.2148438 C 9.9884747 4.3096427 10.344743 4.6670393 10.439453 5.1230469 L 12.955078 17.392578 L 14.572266 10.654297 C 14.644441 10.352778 14.833352 10.092695 15.097656 9.9296875 C 15.281815 9.8166253 15.492825 9.7539062 15.708984 9.7539062 C 15.799423 9.7539062 15.893155 9.7664135 15.984375 9.7890625 L 15.986328 9.7890625 C 16.355374 9.8781517 16.658632 10.141317 16.798828 10.494141 C 16.906013 10.762562 17.002803 11.026756 17.095703 11.279297 C 17.372581 12.032422 17.591937 12.548253 17.816406 12.841797 C 18.040875 13.135342 18.23274 13.232422 18.626953 13.232422 L 20.5625 13.232422 C 20.957563 13.232422 21.283203 13.558062 21.283203 13.953125 C 21.283203 14.348188 20.957563 14.673828 20.5625 14.673828 L 18.628906 14.673828 C 17.741186 14.673828 17.108218 14.287331 16.681641 13.734375 C 16.266944 13.196819 16.02261 12.515124 15.773438 11.835938 L 14.076172 18.912109 C 13.970371 19.352938 13.615817 19.693546 13.171875 19.785156 C 13.093372 19.801446 13.012784 19.810547 12.933594 19.810547 C 12.70514 19.810547 12.482445 19.743247 12.291016 19.617188 C 12.031305 19.445989 11.849859 19.177466 11.787109 18.873047 L 9.296875 6.7304688 C 9.1434887 7.5039923 8.9782106 8.3299664 8.8554688 8.9726562 C 8.4638495 11.022686 8.2098597 12.398279 7.7714844 13.316406 C 7.5522967 13.77547 7.2752275 14.124997 6.9082031 14.351562 C 6.5411787 14.578126 6.1012012 14.671875 5.578125 14.671875 L 3.4375 14.671875 C 3.0424367 14.671875 2.7167969 14.346235 2.7167969 13.951172 C 2.7167969 13.556109 3.0424367 13.230469 3.4375 13.230469 L 5.578125 13.230469 C 5.8451487 13.230469 6.0136956 13.199536 6.1425781 13.121094 C 6.2714606 13.042651 6.3924354 12.900858 6.5234375 12.599609 C 6.7854417 11.997113 7.0362288 10.809764 7.4375 8.7070312 C 7.6330958 7.6821815 7.8538102 6.5197719 8.1445312 5.1230469 C 8.2582116 4.582769 8.7402374 4.1894531 9.2929688 4.1894531 z " /><g
   id="path6" />
</g>
</svg>
