<?xml version="1.0" encoding="UTF-8" standalone="no"?>
<svg
   width="512"
   height="512"
   viewBox="0 0 512 512"
   version="1.1"
   id="svg4"
   sodipodi:docname="lock-open.svg"
   inkscape:version="1.1.2 (0a00cf5339, 2022-02-04)"
   xmlns:inkscape="http://www.inkscape.org/namespaces/inkscape"
   xmlns:sodipodi="http://sodipodi.sourceforge.net/DTD/sodipodi-0.dtd"
   xmlns="http://www.w3.org/2000/svg"
   xmlns:svg="http://www.w3.org/2000/svg">
  <defs
     id="defs8" />
  <sodipodi:namedview
     id="namedview6"
     pagecolor="#ffffff"
     bordercolor="#666666"
     borderopacity="1.0"
     inkscape:pageshadow="2"
     inkscape:pageopacity="0.0"
     inkscape:pagecheckerboard="0"
     showgrid="false"
     inkscape:zoom="1.4199219"
     inkscape:cx="256"
     inkscape:cy="256"
     inkscape:window-width="1920"
     inkscape:window-height="977"
     inkscape:window-x="0"
     inkscape:window-y="31"
     inkscape:window-maximized="1"
     inkscape:current-layer="svg4" />
  <path
     d="M 374.60504,188.24164 H 188.22569 v -84.71789 a 67.77431,67.77431 0 1 1 135.54862,0 16.943579,16.943579 0 0 0 33.88715,0 101.66146,101.66146 0 1 0 -203.32291,0 v 84.71789 h -16.94358 a 67.848436,67.848436 0 0 0 -67.774317,67.7743 v 186.37935 a 67.848436,67.848436 0 0 0 67.774317,67.77431 h 237.21007 a 67.848436,67.848436 0 0 0 67.77431,-67.77431 V 256.01594 a 67.848436,67.848436 0 0 0 -67.77431,-67.7743 z"
     id="path2"
     style="stroke-width:1.05897;fill:#ffffff;fill-opacity:1" />
</svg>
