<?xml version="1.0" encoding="UTF-8" standalone="no"?>
<svg
   width="512"
   height="512"
   viewBox="0 0 512 512"
   version="1.1"
   id="svg4"
   sodipodi:docname="logo-youtube.svg"
   inkscape:version="1.1.2 (0a00cf5339, 2022-02-04)"
   xmlns:inkscape="http://www.inkscape.org/namespaces/inkscape"
   xmlns:sodipodi="http://sodipodi.sourceforge.net/DTD/sodipodi-0.dtd"
   xmlns="http://www.w3.org/2000/svg"
   xmlns:svg="http://www.w3.org/2000/svg">
  <defs
     id="defs8" />
  <sodipodi:namedview
     id="namedview6"
     pagecolor="#ffffff"
     bordercolor="#666666"
     borderopacity="1.0"
     inkscape:pageshadow="2"
     inkscape:pageopacity="0.0"
     inkscape:pagecheckerboard="0"
     showgrid="false"
     inkscape:zoom="1.4199219"
     inkscape:cx="255.64787"
     inkscape:cy="256"
     inkscape:window-width="1920"
     inkscape:window-height="977"
     inkscape:window-x="0"
     inkscape:window-y="31"
     inkscape:window-maximized="1"
     inkscape:current-layer="svg4" />
  <path
     d="M508.64,148.79c0-45-33.1-81.2-74-81.2C379.24,65,322.74,64,265,64H247c-57.6,0-114.2,1-169.6,3.6-40.8,0-73.9,36.4-73.9,81.4C1,184.59-.06,220.19,0,255.79q-.15,53.4,3.4,106.9c0,45,33.1,81.5,73.9,81.5,58.2,2.7,117.9,3.9,178.6,3.8q91.2.3,178.6-3.8c40.9,0,74-36.5,74-81.5,2.4-35.7,3.5-71.3,3.4-107Q512.24,202.29,508.64,148.79ZM207,353.89V157.39l145,98.2Z"
     id="path2"
     style="fill:#ffffff;fill-opacity:1" />
</svg>
