<?xml version="1.0" encoding="UTF-8" standalone="no"?>
<!-- Generator: Adobe Illustrator 19.0.0, SVG Export Plug-In . SVG Version: 6.00 Build 0)  -->

<svg
   version="1.1"
   id="Capa_1"
   x="0px"
   y="0px"
   viewBox="0 0 57.945 57.945"
   style="enable-background:new 0 0 57.945 57.945;"
   xml:space="preserve"
   xmlns="http://www.w3.org/2000/svg"
   xmlns:svg="http://www.w3.org/2000/svg"><defs
   id="defs41" />

<g
   id="g8"
   style="fill:#8c0000;fill-opacity:0.88919693;stroke:#ffffff;stroke-opacity:1"
   transform="matrix(0.84468366,0,0,0.80768491,0.13741646,2.6352237)">
</g>
<g
   id="g10"
   style="fill:#8c0000;fill-opacity:0.88919693;stroke:#ffffff;stroke-opacity:1"
   transform="matrix(0.84468366,0,0,0.80768491,0.13741646,2.6352237)">
</g>
<g
   id="g12"
   style="fill:#8c0000;fill-opacity:0.88919693;stroke:#ffffff;stroke-opacity:1"
   transform="matrix(0.84468366,0,0,0.80768491,0.13741646,2.6352237)">
</g>
<g
   id="g14"
   style="fill:#8c0000;fill-opacity:0.88919693;stroke:#ffffff;stroke-opacity:1"
   transform="matrix(0.84468366,0,0,0.80768491,0.13741646,2.6352237)">
</g>
<g
   id="g16"
   style="fill:#8c0000;fill-opacity:0.88919693;stroke:#ffffff;stroke-opacity:1"
   transform="matrix(0.84468366,0,0,0.80768491,0.13741646,2.6352237)">
</g>
<g
   id="g18"
   style="fill:#8c0000;fill-opacity:0.88919693;stroke:#ffffff;stroke-opacity:1"
   transform="matrix(0.84468366,0,0,0.80768491,0.13741646,2.6352237)">
</g>
<g
   id="g20"
   style="fill:#8c0000;fill-opacity:0.88919693;stroke:#ffffff;stroke-opacity:1"
   transform="matrix(0.84468366,0,0,0.80768491,0.13741646,2.6352237)">
</g>
<g
   id="g22"
   style="fill:#8c0000;fill-opacity:0.88919693;stroke:#ffffff;stroke-opacity:1"
   transform="matrix(0.84468366,0,0,0.80768491,0.13741646,2.6352237)">
</g>
<g
   id="g24"
   style="fill:#8c0000;fill-opacity:0.88919693;stroke:#ffffff;stroke-opacity:1"
   transform="matrix(0.84468366,0,0,0.80768491,0.13741646,2.6352237)">
</g>
<g
   id="g26"
   style="fill:#8c0000;fill-opacity:0.88919693;stroke:#ffffff;stroke-opacity:1"
   transform="matrix(0.84468366,0,0,0.80768491,0.13741646,2.6352237)">
</g>
<g
   id="g28"
   style="fill:#8c0000;fill-opacity:0.88919693;stroke:#ffffff;stroke-opacity:1"
   transform="matrix(0.84468366,0,0,0.80768491,0.13741646,2.6352237)">
</g>
<g
   id="g30"
   style="fill:#8c0000;fill-opacity:0.88919693;stroke:#ffffff;stroke-opacity:1"
   transform="matrix(0.84468366,0,0,0.80768491,0.13741646,2.6352237)">
</g>
<g
   id="g32"
   style="fill:#8c0000;fill-opacity:0.88919693;stroke:#ffffff;stroke-opacity:1"
   transform="matrix(0.84468366,0,0,0.80768491,0.13741646,2.6352237)">
</g>
<g
   id="g34"
   style="fill:#8c0000;fill-opacity:0.88919693;stroke:#ffffff;stroke-opacity:1"
   transform="matrix(0.84468366,0,0,0.80768491,0.13741646,2.6352237)">
</g>
<g
   id="g36"
   style="fill:#8c0000;fill-opacity:0.88919693;stroke:#ffffff;stroke-opacity:1"
   transform="matrix(0.84468366,0,0,0.80768491,0.13741646,2.6352237)">
</g>
<path
   id="path1272"
   style="fill:#97a5b4;fill-opacity:1;stroke:none;stroke-width:2.20096;stroke-linecap:round;stroke-miterlimit:4;stroke-dasharray:none;stroke-opacity:1;paint-order:stroke fill markers"
   d="M 28.972499,0.19790292 A 28.775375,28.775375 0 0 0 0.19790292,28.972499 28.775375,28.775375 0 0 0 28.972499,57.747097 28.775375,28.775375 0 0 0 57.747097,28.972499 28.775375,28.775375 0 0 0 28.972499,0.19790292 Z m 0.02233,17.99655308 h 0.02232 0.05074 c 9.11005,0 17.674913,3.351604 24.090785,9.428506 0.606062,0.57391 0.601072,1.522592 -0.0081,2.092292 l -0.002,0.002 c -0.611006,0.569551 -1.622149,0.565247 -2.228258,-0.0102 -3.627819,-3.436217 -8.02752,-5.834333 -12.809456,-7.210392 1.459087,1.806883 2.356112,4.039775 2.356112,6.475756 0,5.936852 -5.153997,10.778043 -11.472092,10.778043 -6.318095,10e-7 -11.470063,-4.841191 -11.470063,-10.778043 0,-2.410754 0.877673,-4.62286 2.309436,-6.420963 -4.70848,1.38599 -9.041018,3.76437 -12.6207225,7.155599 l -0.1887325,0.178585 -0.00203,0.002 c -0.3050018,0.288793 -0.7142677,0.438435 -1.1181897,0.438435 -0.4004882,0 -0.8041269,-0.145587 -1.1080423,-0.4282 l -0.00203,-0.002 C 4.1836686,29.326335 4.1797128,28.37799 4.7863339,27.803576 l 0.1887324,-0.180614 h 0.00203 C 11.359297,21.577567 19.869673,18.230542 28.925824,18.196485 h 0.002 0.002 c -0.05184,1e-6 -0.03142,-0.002 0.06494,-0.002 z m 0.02029,2.958839 c 0.0097,7.6e-5 -0.01935,0.0039 -0.08118,0.0041 -4.566233,0.03131 -8.259581,3.517088 -8.259581,7.815146 0,4.317267 3.725958,7.819207 8.320463,7.819207 4.594505,0 8.320463,-3.50194 8.320463,-7.819207 0,-4.310127 -3.71471,-7.807813 -8.300169,-7.819205 z m -0.02029,1.690474 c 0.86118,0 1.5748,0.670207 1.5748,1.479418 0,0.809214 -0.71362,1.47942 -1.5748,1.47942 -1.866612,0 -3.372831,1.415915 -3.372831,3.169892 0,0.809215 -0.713621,1.479419 -1.5748,1.479419 -0.861179,1e-6 -1.5748,-0.670204 -1.5748,-1.479419 0,-3.373438 2.932361,-6.12873 6.522431,-6.12873 z" /><g
   id="g6"
   style="fill:#000000;fill-opacity:0.889197;stroke:#000000;stroke-width:1.81972124"
   transform="matrix(0.79366668,0,0,0.74577564,5.977992,7.3655151)">
	<g
   id="path2" />
	<g
   id="path4" />
</g></svg>
